<svg xmlns="http://www.w3.org/2000/svg" viewBox="0 0 481.21 229.57"><defs><style>.cls-1{fill:#b89899;}.cls-2{fill:#ece2e1;}.cls-3{fill:#fff;}</style></defs><title>logo-w</title><g id="圖層_2" data-name="圖層 2"><g id="圖層_1-2" data-name="圖層 1"><path class="cls-1" d="M402.86,52.43a22.06,22.06,0,0,1-2.73,7.42c-3.3,5.75-9.05,13.25-15.26,16-6.92,3.1-12.63,8-19.05,11.84-4.43,2.64-9.58,3.57-14.66,3.7-8.83.22-18.52.92-27.06-1.71A18.15,18.15,0,0,0,319,88.5c-2.09,0-3,1.16-4.58,2.18a17.28,17.28,0,0,1-5.78,2c-4.88,1-9.93.45-14.78-.4a22.23,22.23,0,0,1-11.17-5c-3.59-3.09-7.92-5.12-11.87-7.67-5.79-3.73-10-8.64-9.72-15.76.21-4.87,2.1-9.42,2.54-14.18a5.72,5.72,0,0,0-1-4.07,21.37,21.37,0,0,0-3-2.53c-4.72-4.15-2.07-9.91,3.15-11.59a2,2,0,0,1,.44-.16c8.31-.71,15.68-5,23.83-6.31a38.76,38.76,0,0,1,11.68,0,9.77,9.77,0,0,0,9.43-4.37c1.38-2.2,2.21-4.66,3.36-7C314.88,6.85,320,2.55,327.75,1.72c1.31.12,2.58-.3,3.89-.23,2.29-.15,4.59.29,6.86-.25H339c3.37.69,6.72,1.37,9.71,3.22a6.84,6.84,0,0,1,2.7,2.19,10.44,10.44,0,0,0,5.44,4.56,16.61,16.61,0,0,1,6.08,4.69c4.2,5,4.63,5.17,11,4.38a35.12,35.12,0,0,1,17.05,2.16c5.18,2,8.35,5.61,8.29,11.52a15,15,0,0,0,1.64,7A18.4,18.4,0,0,1,402.86,52.43Z"/><path class="cls-2" d="M361.05,173.75c-.22.06-.44.11-.67.15-2.6.48-4.44-.57-6.53-1.89a1.29,1.29,0,0,1-.69-1.16c.44-6.77-1-13.48-.56-20.27.77-10.76,4.47-20.44,8.24-30.43,1-2.74,1.86-4.74,5-5.23a6,6,0,0,1,6.25,3.59c1.19,2.58,1.37,5.3,1.63,8,.66,6.83,1.44,13.68,1,20.56-.48,7.32-1.84,14.51-6.69,20.31C366,169.8,364.24,172.83,361.05,173.75Z"/><path class="cls-3" d="M383.86,135.31c-2.72,2.3-6.12,3.07-8.37,5.72-.69.81-1.65,1.82-2.9,1.1s-.68-2.08-.44-3.26c.9-4.29,4.7-5.56,7.85-7.39,1.81-1,3.57-1.88,4.77-3.77,1.37-2.17,3.37-1.32,5.05-.32,2.62,1.58,3.88,5.12,3.27,8.22-.17.89-1,1.68-.43,2.94,2.73-1.53,4.93-3.73,7.33-5.54a35.33,35.33,0,0,1,11.49-5.78c2.6-.76,6,1.79,6.53,5.12a21.72,21.72,0,0,1-1,11.93c-.76,1.86.39,3.27,1.4,4.34.8.85,2.13-.05,3-.82a105.64,105.64,0,0,1,12.24-10.09c.57-.38,1-1.06,1.81-.66s.17,1.09.25,1.64c.65,4.85-3.42,6.89-6.17,9.24-2.5,2.15-5,4.35-7.61,6.43a7.08,7.08,0,0,1-8.4.84c-2.37-1.21-3.83-4.51-4.17-7.2a99.88,99.88,0,0,1-.35-11.72c0-1.44-.85-1.26-2-.78-4.86,2.09-8.79,5.46-12.81,8.78-1.92,1.59-3.28,4-5.35,5-3,1.4-5.2,3.73-7.56,5.72-1.93,1.61-2.89.89-4.11-.14a4.86,4.86,0,0,1-1.45-3.78,10.53,10.53,0,0,1,3.54-8C381.42,141,383.24,138.84,383.86,135.31Z"/><path class="cls-3" d="M243.36,123.49c1.9-1.53,4.21.08,6.5-.41a3,3,0,0,1,3.25,2.12c.57,1.48,1.64,3.09.17,4.62-1.08,1.12-2.54,2.62-4,1.77-5.08-2.86-8.68.15-12.74,2.43-3.72,2.08-5.4,5.76-7.9,8.76-1.37,1.63-1.77,4.21-1.83,6.53-.05,1.77,1.37,1.79,2.6,1.78a20.4,20.4,0,0,0,10.91-3.55c2.76-1.74,5.77-3.09,8.56-4.79A84.08,84.08,0,0,0,259.68,135c.76-.65,1.65-1.66,2.74-1s-.13,1.61,0,2.28c.69,3.43-1.88,4.73-3.87,6.47-4.43,3.87-9.65,6.62-14.34,10.14a13.8,13.8,0,0,1-6.88,2.72c-1,.08-1.84,1.92-3.31,1.74-3.69-.46-7.35-.22-10.42-3.51-4.45-4.75-3.33-8.92-.49-14.2a36.64,36.64,0,0,1,4.88-7.15c3-3.39,6.51-6.55,11-8C240.3,124.09,241.38,122.55,243.36,123.49Z"/><path class="cls-3" d="M180.23,151.05c4.21.19,7.69-1.74,11.16-3.72,3-1.71,6.07-3.27,9-5.1a66,66,0,0,0,9.12-6.55,14.16,14.16,0,0,1,2.36-1.63c.69-.41,1.88,0,1.64.45-1,1.7.47,3.68-1.05,5.35a28.25,28.25,0,0,1-6.14,5.27c-2.63,1.58-5,3.53-7.56,5.14s-5.06,3.78-8.21,4.58-5.45,3.38-9.61,2.07c-5.79-1.82-8.28-3-9.67-8.56-.69-2.72.54-5.2,1.68-7.39,1.73-3.3,3.65-6.74,6.32-9.22,4.29-4,8.74-7.9,15.22-8.54,2.21-.22,4.34.3,6.56,0,1.73-.27,2.71,1.66,3.32,3.45a3,3,0,0,1-1.12,3.86c-1.28,1-2.46,1.76-4.23.75-2.57-1.48-5.11-.86-7.71.37-5.17,2.44-8.9,6.47-12,11a11.11,11.11,0,0,0-1.75,6.81C177.64,151.15,179,151,180.23,151.05Z"/><path class="cls-3" d="M282.31,133.26c-2.62,1-5.29,1.56-7.6,3.66-1.51,1.38-3.39,2.45-4.89,4a1.28,1.28,0,0,1-2.29-.53c-.37-1.65-.48-3.48,1.08-4.73a74.08,74.08,0,0,1,6.61-5c3.12-2,6.12-4.08,9.11-6.23,1.42-1,2.9-.4,4.13.49,1.48,1.07,3.11,2.3,2.68,4.41-.67,3.37-.91,6.86-3,9.87-1.17,1.7-1.21,3.89-1.44,5.92-.06.52-.55,1.33.17,1.62a2.43,2.43,0,0,0,2.21-.31,89.16,89.16,0,0,0,12.7-9c.58-.49,1.21-1.22,2-.66s.62,1.37.36,2.15c-.75,2.22-1.5,4.56-3.4,6-3.89,3-7.26,6.78-11.8,8.91-1.76.83-3.45,1.87-5.46,2.12-2.71.33-4.41-1.27-5-3.86-1.55-6.45,1.45-11.81,3.68-17.39.13-.31.24-.64.34-1C282.53,133.67,282.46,133.59,282.31,133.26Z"/><path class="cls-3" d="M292.53,104.65c0-2.5,1.45-3.88,4.15-3.89,1.37,0,3.54,2.55,3.62,4.28.14,2.95-1.6,5.33-3.84,5.26S292.56,107.65,292.53,104.65Z"/><path class="cls-3" d="M77.88,96.13A13.63,13.63,0,0,0,67.59,81.84c-3.72-.94-7.39-1.72-11.51-1.22s-8.58,0-12.9,1.41a151.32,151.32,0,0,0-16.39,6.14A66.11,66.11,0,0,0,13,96.86c-3.95,3.14-7.35,7-9,11.87-1.47,4.36.26,7.91,4.23,9.6,6.77,2.87,14.1,3.68,21.06,5.9,4,1.29,8.21,2.16,11.87,4.32,3.48,2,5.37,4.59,1.68,9.08a29.29,29.29,0,0,0-2.41,3.07A15,15,0,0,1,32,147.27a67.89,67.89,0,0,0-10.08,4.13c-4.29,2.07-8.76,3.7-13.07,5.69-3,1.4-6.39,2.37-8.81,4.91v2.09l2.52,1.68h0c.93,0,1.92-.48,2.7.41H7.31c.32-.54.88-.49,1.38-.56,10.13-1.54,19.14-5.88,27.61-11.36,8-5.18,16.76-8.78,25.34-12.82,2.46-1.16,5.62-2.18,6.33-5.63.15-.72,1-1.41.33-2.15s-1.68-.07-2.38.25c-4.55,2.05-9.05,4.2-13.57,6.31,1.77-2.3,2.43-5,3.26-7.68,1.25-4.08-2.46-11-7.73-9.88-.35.08-.85.15-.82-.24.14-2.31-1.68-1.58-2.84-2-1.58-.56-3.39-.32-4.79-.89-4.66-1.9-9.56-2.4-14.42-2.78a42.69,42.69,0,0,1-13.52-3c-1.62-.68-2.3-1.68-1.11-3.17a37.22,37.22,0,0,1,5-5.63,59.12,59.12,0,0,1,13.29-8c1.84-.86,3.17-2.27,5.56-2.62s4.65-1.66,7-2.38c6.25-1.86,12.62-3.33,19.13-2.44,4.46.62,9.34.88,12.27,5.4.83,1.27,1.57,2-.33,3-1.1.56-2.34,1.61-1.3,3.13s2.11,2.55,4.33,1.54C78.52,101.15,77.71,98.58,77.88,96.13ZM11.54,160.47h0a6.24,6.24,0,0,1-.9.44,3.11,3.11,0,0,1-.75,0c0-.84.7-.68,1.12-.91,3.9-2.5,8.28-3.67,12.75-4.59C20.22,158.41,15.81,159.28,11.54,160.47Z"/><path class="cls-3" d="M117.74,130.71c-.85-.78-1.72,0-2.55.5a91.14,91.14,0,0,0-8.93,5.76c-.86.67-2.36,1.13-2.89.45-1.57-2-3.43-1.61-5.6-1.82-4.8-.47-7.47,2-9.77,5.41-.82,1.21-.92,2.91.84,3.77,2.38,1.15,2.66,1.94,1.28,4.13a12.65,12.65,0,0,1-3.07,2.77c-1.1.91-1.59.7-1.89-.68a16.51,16.51,0,0,1-.42-6.19c.6-3.42-.57-7.18,1.9-10.5,1.36,1.66,3,1.82,4.31.39,1.69-1.84,3.88-3.81,4.35-6,.64-3.09,3.39-4.38,4.6-7,.86-1.88,2.76-3.88,4-5.89a145.28,145.28,0,0,0,8.59-16.41,94.37,94.37,0,0,0,4.14-11.91c1.11-3.77-.22-6.15-2.7-8.46h-1.56c-4.75,2.9-8.12,7.28-11.54,11.44a120.09,120.09,0,0,0-10.48,15.28,148.75,148.75,0,0,0-10.58,22.21c-1.63,4.19-.91,8.6-2.8,12.56-.65,1.37,1.2,3,.67,3.89-1.82,3-.16,5.39.64,7.92,1.24,3.91,4,5.33,8.07,4.66,5.12-.83,8.22-4.25,11-8.2.83-1.19,1-3.3,3.15-2.91,2.82.52,4.18-2.43,6.8-2.6,1.06-.07,2.36-1.42,3.39-2.14a25.69,25.69,0,0,0,7.21-7.71A2.24,2.24,0,0,0,117.74,130.71Zm-6.1-44.33c.17,2.23.35,3.74-.2,5.28A89,89,0,0,1,101.85,110c-2.88,4.43-6.28,8.42-9.3,12.71-1.35,1.92-3,3.6-4.54,5.39l-.82-.54C93.17,112.83,102.33,100,111.64,86.38Z"/><path class="cls-3" d="M480.73,133.24h0c-.27-2.51-3.42-4-2.37-7.09.19-.54-.87-1.25-1.61-1.54-3.33-1.33-6.58-3.37-10.33-1.14a4.13,4.13,0,0,1-1.49.42,19.6,19.6,0,0,0-8.33,3.52,82.9,82.9,0,0,0-10.67,7.72c-1.74,1.58-2.64,3.09-2.32,5.38.09.63.09,1.26.78,1.48a1.15,1.15,0,0,0,1.53-.64c.31-1.34,1.82-1.25,2.37-2.24a.92.92,0,0,1,1.32-.44c.5.34.29,1,.18,1.45a61.09,61.09,0,0,0-1.37,6.33c-.78,7,7.35,13.26,14,11,6.88-2.38,13-5.65,16.57-12.55.92-1.75,1-3.75,2.2-5.3v-2.09C480.19,136.16,480.88,134.65,480.73,133.24Zm-7.48,3.1c1.64,1.25.79,2.84.35,4.29-1.44,4.77-5.3,7.74-8.65,11a7.54,7.54,0,0,1-4.11,2.07c-3.25.43-4.72-.72-4.67-4A20.63,20.63,0,0,1,460.85,137c1.75-2.24,4-3.65,6.15-5.2,1.09-.81,3.2-.45,4.74-1.17h0a3.33,3.33,0,0,1,2.54-1.38,4.75,4.75,0,0,1-1.9,2C471.42,133.18,471.34,134.89,473.25,136.34Z"/><path class="cls-3" d="M364.91,135.48c-1.13-.5-1.66.54-2.36,1.18q-4.56,4.18-9.2,8.3c-.49.43-1.15,1-1.86.59s-.35-1.09-.33-1.67a16.08,16.08,0,0,1,3.21-9.12,10.07,10.07,0,0,0,2.39-6.71,2.51,2.51,0,0,0-2.81-2.69,4.85,4.85,0,0,0-4.86,2.81c-.22.45-.52,1-1.14.92s-.43-.65-.54-1c-1.33-4.67-3.49-5.68-8.05-4.07a47,47,0,0,0-13.07,6.79,40.3,40.3,0,0,0-11,12.29,11,11,0,0,0-1.67,6.56c.69,6.41,4,9.25,9.42,7,7.18-2.92,12.61-8.6,18.36-13.64a9.17,9.17,0,0,1,3.06-1.95c0,2.49,0,4.78,0,7.08a4.9,4.9,0,0,0,6.62,4.41c4.6-1.56,8.07-4.78,11.61-7.95,2-1.75,2.36-4.13,3.07-6.4C366,137.25,366.11,136,364.91,135.48Zm-32.63,9.61c-2.85,1.63-5.4,3.77-8.48,5-.82.33-1.75,1.2-2.6.32a2.69,2.69,0,0,1-.22-3c1.34-3.33,3.88-5.88,6.36-8.25a26.94,26.94,0,0,1,10.6-6.3c2.63-.84,4.95.47,7.52.1C341.2,137.32,337.56,142.07,332.28,145.09Z"/><path class="cls-3" d="M151.2,129.55c-.43-.42-.66-.68-.32-1.28,1.12-2-.13-3.07-1.78-3.79-3.32-1.47-6.45-2.62-10.37-1.07-3.37,1.33-6.82,2.33-9.95,4.29a88.26,88.26,0,0,0-10.17,7.47c-1.83,1.56-2.9,3.11-2.22,5.55.14.5,0,1.08.66,1.27a1.35,1.35,0,0,0,1.57-.65c1-1.45,2.46-2.23,4.34-3.71-.64,3-1,5.4-1.67,7.7-1.92,6.58,7,14.33,12,12.8a37.7,37.7,0,0,0,13-6.61,19,19,0,0,0,6.91-11.45C154,136.19,154.3,132.57,151.2,129.55Zm-4.72,10.66a25.58,25.58,0,0,1-11.58,13c-3.45,1.94-6,.31-6-3.62,0-4.76,1.68-8.72,4.61-12.5a20.31,20.31,0,0,1,6.13-5.22c1.73-1,4.27-.87,6.43-2.08-2.34,2.69-2.29,4.94.38,7.21C147.36,137.74,146.9,139.15,146.48,140.21Z"/><path class="cls-3" d="M335.35,38.11l0,0,0,0a12.52,12.52,0,0,1,.41,2.06,1.35,1.35,0,0,1-1.06,1.44,1.12,1.12,0,0,1-1.26-.52,1.26,1.26,0,0,1,.35-1.54,19.42,19.42,0,0,1,1.56-1.44s0,0,0-.06h0c-1.61-1.75-2,.38-2.63,1-.82.87-1.46,2.11,0,3.11a3.06,3.06,0,0,0,4.15-1.35C337.78,39.18,336.78,38.53,335.35,38.11Z"/><path class="cls-3" d="M391.91,41.43c-.88-.93-.91-2.22-.93-3.5,0-3.09-.14-6.85-2.39-8.57-3.53-2.69-7.45-5.37-12.15-5.9-1.9-.21-3.75.58-5.51,1.22-1.19.44-1.49.26-2.19-.81-4-6.06-8.7-11.35-16-13.62A10.07,10.07,0,0,1,347.19,6,12.21,12.21,0,0,0,337,0C332.57-.18,328.5.46,324.79,3s-8.09,3.23-11.45,6.24-6.46,5.74-9.45,8.92c-2.27,2.4-4.87,4.4-5.83,7.75-.45,1.55-1.37,1.88-2.77,1-3.92-2.43-8.28-3.16-12.78-3.14-2.59,0-5,.83-6.12,3.35-.77,1.78-1.79,1.68-3.1,1.14a18,18,0,0,0-6.73-1.43,5.56,5.56,0,0,0-5.86,5.81,2.49,2.49,0,0,1-.67,2c-3.45,3.45-3.73,5.47-1.18,9.67a12.24,12.24,0,0,1,1.45,4.14c.48,2.43,0,4.75-.38,7.1-1,6,.17,11.14,5.35,14.89a8.35,8.35,0,0,1,1.48,1.65c4.3,5.49,9.54,9.37,16.63,10.62,4.05.71,8.08,1.93,11.26,4.73a10.37,10.37,0,0,0,6.51,2.46,19.36,19.36,0,0,0,11.64-2.39c1.23-.73,2-.53,2.95.48A18,18,0,0,0,322,92.25c1.13.45,3-.34,3.33.8s-.69,2.43-1.1,3.68a20,20,0,0,0-.66,2.12,190.49,190.49,0,0,0-5,45.82c.18,7.91.75,15.8.29,23.72a4.63,4.63,0,0,1-2.1,3.91c-2.89,2-5.67,4.14-8.49,6.22,3.88-.58,6.43-3.62,10.13-5.18-.56,6.16-.78,12-.88,17.81-.23,13.91-2.77,27-14.71,36.17a2.64,2.64,0,0,0-1.39,2.25,8.44,8.44,0,0,0,1.08-.46c.63-.4,1.25-.81,1.83-1.26a35,35,0,0,0,13.52-22.24c1.63-8.59,1.37-17.23,1.75-25.86.23-5.19,1-9.88,5.79-13a13.41,13.41,0,0,0,3-3.3,16.52,16.52,0,0,0,3.57-10.32c0-7,0-14-.08-21a50.29,50.29,0,0,1,4.29-21.39,12.1,12.1,0,0,1,4.93-5.33c4.92-3.09,9.92-1.71,14.75-.13,7.7,2.51,9.86,11.3,4.16,17-4.88,4.88-5.68,11.53-8.32,17.38a3.31,3.31,0,0,0-.1,1.23c-.06,5.85-.22,11.7-.15,17.54.06,5.61.25,11.2,3.17,16.31,1.54,2.68,2.35,3.08,4.89,1.51.67-.41,1.2-1.19,2.18-.91,2.7.76,4.21-.85,5.34-2.88a55.22,55.22,0,0,0,6.38-16.23c1.74-8.89,2.46-17.75.26-26.7a11,11,0,0,0-6.43-7.93c-2.73-1.16-3.1-2.68-2.77-5.35.6-4.88-1.11-9-5.6-11.4a22.94,22.94,0,0,0-13.63-2.66,11.83,11.83,0,0,0-10,7.43,60.06,60.06,0,0,0-3.26,9.58c-2.36,10.41-1.43,21-1.55,31.5-.08,7.33-3.55,14.86-9.58,17.69,0-2.51.05-5,0-7.4-.38-16-1-32,1.86-47.82,1.06-6,1.83-12,3.83-17.86.52-1.52,1.24-2.13,3-2.49a13.76,13.76,0,0,1,8.26.45,4.42,4.42,0,0,0,1.71.15,53.54,53.54,0,0,0,20.41-4.1c4.17-1.8,8.49-3.58,11-7.61,1.25-2,2.57-2.7,4.77-2.41,7.86,1,13.21-2.64,17.15-9.08,2.55-4.17,4.19-8.74,6-13.25V56C397.15,50.82,395.82,45.54,391.91,41.43Zm-31,130a21.94,21.94,0,0,0-1.57,2.19c-.4.77-.72,1.56-1.69,1.56-1.14,0-1.74-.82-2.15-1.75a19.86,19.86,0,0,1-2.19-8c0-7.9-.81-15.92.3-23.66.92-6.41,3.12-12.93,7.76-18.06.32-.35.72-.62,1.49-1.28.08,7.27,1.85,13.67,3.43,20.13,1.89,7.69.83,15.39-1.07,22.95C364.64,167.88,362.34,169.38,360.94,171.4Zm3.86-49.13c.75-.44,1.57.26,2.24.67,2.78,1.7,4.81,3.93,5.28,7.34a86.21,86.21,0,0,1,1.13,13.8c-.84,7.76-1.41,17.32-6.6,25.82-.89,1.44-1.07,3.3-3,4-.84.3-1.72.52-2.29-.18s.31-1.17.67-1.62c7.92-10.09,7-21.5,4.55-32.93a98.76,98.76,0,0,1-2.47-14.57C364.28,123.78,364,122.72,364.8,122.27Zm-64.48-98a15.12,15.12,0,0,1,4.46-4.86A5.79,5.79,0,0,0,306.41,18c2.95-4.57,7.39-7.47,11.85-10.2A57.11,57.11,0,0,1,330,2.22a15.16,15.16,0,0,1,12.42.91,8.76,8.76,0,0,1,2.94,2.93,14.67,14.67,0,0,0,8.34,6.14c3.78,1.12,6.75,3.69,9.34,6.61,1.31,1.47,2.57,3,3.74,4.57s1,3-.92,4A56.55,56.55,0,0,0,353.54,36c-4.46,4.24-9.1,8.45-12.24,13.91,1.51-.59,2-2.12,3-3.16,5.7-5.8,11.38-11.61,18.29-16,1.32-.84,2.7-1.55,4-2.38,1.1-.69,1.54-.24,1.51.86,0,1.56-.13,3.13-.3,4.68a21.31,21.31,0,0,0-.15,5.41,11.52,11.52,0,0,1-3.72,10c-2.5,2.42-5.68,4.15-8.56,6.18A14.48,14.48,0,0,1,350,57.8c0-2.24-1.16-2.95-3.87-2.38-.39.08-.73.38-1.12.49-1,.29-2.37,1-2.87-.07-.66-1.48.94-2,2-2.57a4,4,0,0,1,2.41-.28c1.49.2,2.85,0,3.39-1.68a1.28,1.28,0,0,0-.85-1.78c-1.55-.46-3.1-.55-4.31.83-.32.36-.46.89-.79,1.24-1.35,1.44-2.33,1.29-3.2-.46a5.28,5.28,0,0,0-2.17-2.31c-1.41-.78-1.33-1.87-1.05-3.17.19-.93.48-1.33,1.47-.84,1.15.57,2,.12,3.18-1.45-1.6.34-2.44.68-3.53,0s-1.85.85-2.65,1.57c-.58.52-.65,1.54-1.72,1.58-1.87.08-2.26-.78-1.31-3-.86-.23-1.24.42-1.47,1a2.41,2.41,0,0,1-3.67,1.22c-1.08-.75-.46-2.44.17-3.63a8.37,8.37,0,0,1,1-1.12,1.82,1.82,0,0,0,.47-.84c.09-1-.7-1.29-1.43-1.33-1.18,0-2.59-1.26-3.49.53-.46.92-.47,1.74.59,2.29.49.25,1.3.26,1.23,1s-.05,1.61-.89,1.87a1.44,1.44,0,0,1-1.71-.7,5.07,5.07,0,0,1-1-2.49c.21-1.85-.75-3.43-2-3.7-1.47-.31-2.27,1.57-3.11,3.21-3.69-5.48-8.95-8.58-14.58-11.17-.37-.17-.74-.36-1.13-.5C298.69,27.82,298.47,27.36,300.32,24.31Zm35,30.91c-3.11-1.66-6.29-3.06-10-3.12,4.11-3.1,9.65-2.46,11.75,1.13.42.72,1.21,1.68.46,2.44S336,55.59,335.28,55.22Zm1.17,4.63c-1.33,1.85-2.38,3.3-4.91,2.5-2.91-.92-4.45-2.65-4.48-5.2s1-3.33,3.37-2.41c1.68.66,3.34,1.4,5,2S337.83,57.93,336.45,59.85Zm-11.22-1.06c-.7,0-1-.71-1.2-1.36s-.43-1.4-.61-2.11c-.26-1.09.19-1.54,1.59-1.31.66.22,3-.53,1.08,1.86-.27.34-.23.92-.32,1.39S326.29,58.74,325.23,58.79ZM321,47.8c-1.11-.11-2.44.34-2.63-1.14,0-.38.43-1.19.6-1.17C320.26,45.63,320.5,46.84,321,47.8Zm-1.24-7.3c0-.13.3-.34.48-.36a.58.58,0,0,1,.67.58,1.46,1.46,0,0,1-.52.28C320,41,319.71,40.88,319.73,40.5Zm.08,2c1.91-.4,2-.36,2.55,1.57.34,1.23.44,2.55,1.36,3.63C321,47.06,321.13,44.18,319.81,42.55Zm5.57,7.32A5.2,5.2,0,0,1,329,47.21c.63-.19,1.36-.09,1.54.75.24,1.09-.64.87-1.22,1Zm7-1c-.41-.06-.81-.29-.72-.81a.84.84,0,0,1,.81-.76c2.48-.32,7.19,3.93,7.21,6.55,0,.11-.2.23-.59.65C337.75,51.44,335.74,49.34,332.41,48.88ZM341,59.77c.45-.62,1.2.18,1.7.53,3.72,2.64,4.62,6.78,5.69,10.46-.07,1,.07,1.67-1,1.56-3.24-.3-7.9-4.38-8.75-7.53C337.89,62.33,339.88,61.27,341,59.77Zm4.85-8.69a1.72,1.72,0,0,1,2.56-.3c.36.21.21.58-.1.8C347.31,52.28,346.85,51.22,345.81,51.08Zm-19.5-11s-.14.23-.28.45a2.25,2.25,0,0,1-.42-.48c0-.07.14-.24.22-.36A2.28,2.28,0,0,1,326.31,40.05Zm-27.72-6.81c0-.65.1-1.31.12-2,0-1.09.49-1.43,1.59-1.07,7.25,2.41,13.22,6.5,17.41,13,.46.7.15,1.17-.12,1.79-1,2.32-.56,3.24,1.92,3.9.63.17,1.3.18,1.95.29,1,.18,1.14.89.86,1.68s-1,.71-1.59.28c-2.51-1.85-5.4-3.2-7.56-5.48-3.18-3.32-6.92-5.27-11.57-5.12a2,2,0,0,1-2.36-1.93c-.31-1.78-.54-3.57-.81-5.36Zm23.05,23.12c-.32,1.19-1.54.25-2.32.07-4.07-.94-8.23-1.75-11.63-4.42-2.64-2.06-5.27-4.18-6.3-7.61-.7-2.31-.67-2.37,2.3-2.22A11,11,0,0,1,310.21,45a74,74,0,0,0,9,6.88c.53.38,1.07.76,1.62,1.12C322.1,53.88,321.91,55.37,321.64,56.36Zm-9.83,29.91c-3.57,1.52-7.13,3.08-11.17,2.38a7.34,7.34,0,0,1-4.09-1.58c-3.68-3.5-8.28-5-13.11-5.84-5.57-.93-9.89-3.78-13.57-7.85a80,80,0,0,0-5.62-5.89c-2.49-2.25-2.88-5.43-2.92-8.61-.25-3.31,1.47-6.43.75-9.81a36.39,36.39,0,0,0-2.55-6.93c-1.28-3-1-4,1.37-6.24a3.25,3.25,0,0,0,1.37-3c-.3-2.69,1.34-4.45,4.08-4.46a16.94,16.94,0,0,1,6.27,1.22c3.08,1.2,3.47,1,5-1.76a4.58,4.58,0,0,1,4.43-2.57c4.73.15,9.35.54,13.46,3.33.92.62,1.6,1.08,1.44,2.23a18.58,18.58,0,0,0,.91,7.79c.34,1.16.31,1.91-1.13,2.42-3.66,1.31-4.53,4.45-2.06,7.64a73.06,73.06,0,0,0,4.93,5.5,15.16,15.16,0,0,1,4.45,11.9c-.5,5.25,2.09,9.16,4.49,13.24a45.22,45.22,0,0,0,3.6,5C312.86,85.29,312.88,85.82,311.81,86.27ZM315,83.7c-1.34.91-2.47-.62-3.1-1.63a81.43,81.43,0,0,1-5.62-9.82c-.87-2-.77-4-.77-6.07a18.49,18.49,0,0,0-6.07-14.28c-1.93-1.8-3.91-3.78-4.57-6.21-.06-2.27,1.31-2.79,2.78-3.28s1.77.68,2.12,1.66c1.82,5.16,5.7,8.31,10.41,10.61a40.85,40.85,0,0,0,11,3.34c2,.34,4.6,4.09,4.16,6.09a74.49,74.49,0,0,1-2.93,10.64A19.79,19.79,0,0,1,315,83.7Zm4.69-2.42a20.7,20.7,0,0,0,4.88-10.56C325.18,75.1,323.18,79.52,319.64,81.28ZM327,91a14.27,14.27,0,0,1-10-3.72c-1.68-1.49-1.05-2.69.47-3.07,7.77-1.93,8.21-8.32,9.13-14.47a22.45,22.45,0,0,0,.06-2.47c.13-3.73.14-3.79,3.75-3.81,1.87,0,3.69.83,5.62.5.74-.12,1,.54,1.1,1.1,1,5.3,5.47,6.88,9.52,8.77,2.45,1.14,3.12,3.62,4.85,4.94a2.75,2.75,0,0,1-1.43,2.55c-4.32,2.05-8.05,5.12-12.29,7.29A22,22,0,0,1,327,91Zm23.49-16.09a59.58,59.58,0,0,1,12,2.37c-3.1-.58-6-.39-8.53,1.62-.43.34-1,.36-1.1-.34C352.66,77.15,351.36,76.48,350.53,74.91Zm19.25,5.78A20,20,0,0,1,363,86.22c-7.84,3.87-16,6-24.77,5.4a8,8,0,0,1-1.21-.19c-.12,0-.2-.23-.51-.6C341.42,88.9,345,85,349.81,83a15.39,15.39,0,0,0,3.55-2.21c5-4,10.72-1.52,16.12-1.72C371,79,370.31,80,369.78,80.69Zm2.44-3.61c-1.07,1-2.31.63-3.45.26s-.3-1,0-1.48c1.76-3.39,5.13-3.89,8.91-5A35,35,0,0,1,372.22,77.08Zm24.37-18.67c-2.16,6.06-4.65,11.9-9.47,16.5a9.61,9.61,0,0,1-6.64,2.71,29.82,29.82,0,0,1-6.34,0c1.59-1.92,2.95-3.55,4.29-5.19a2,2,0,0,0,.44-2.49c-.62-1-1.65-.74-2.47-.42-3.47,1.36-7.37,2.1-9.18,6a1.67,1.67,0,0,1-2.46.93c-3.77-2.13-8-2.36-12.14-2.94-1.95-.27-3-.85-3-3.18,0-3.87-2.31-6.92-4.53-10.42,8.5.34,14-4.88,19.69-9.49a11.61,11.61,0,0,0,4.54-10.23c-.4-4.21.67-8.37.43-12.58a1.49,1.49,0,0,1,.84-1.38,9.08,9.08,0,0,1,10.89.67,5.93,5.93,0,0,0,3.35,1.38,4.34,4.34,0,0,1,3.91,3.85c.41,2.26,1.14,4.47.92,6.83a4.55,4.55,0,0,0,1.53,3.53c3.23,3.36,4.36,7.66,5.48,12A6.68,6.68,0,0,1,396.59,58.41Z"/></g></g></svg>