<?xml version="1.0" encoding="utf-8"?>
<!-- Generator: Adobe Illustrator 24.0.1, SVG Export Plug-In . SVG Version: 6.00 Build 0)  -->
<svg version="1.1" id="圖層_1" xmlns="http://www.w3.org/2000/svg" xmlns:xlink="http://www.w3.org/1999/xlink" x="0px" y="0px"
	 viewBox="0 0 481.2 229.6" style="enable-background:new 0 0 481.2 229.6;" xml:space="preserve">
<style type="text/css">
	.st0{fill:#BC5839;}
	.st1{fill:#EAAC9B;}
	.st2{fill:#FFFFFF;}
</style>
<title>資產 24</title>
<path class="st0" d="M402.9,52.4c-0.5,2.6-1.4,5.1-2.7,7.4c-3.3,5.7-9,13.2-15.3,16c-6.9,3.1-12.6,8-19,11.8
	c-4.4,2.6-9.6,3.6-14.7,3.7c-8.8,0.2-18.5,0.9-27.1-1.7c-1.6-0.6-3.4-1-5.1-1.2c-2.1,0-3,1.2-4.6,2.2c-1.8,1-3.7,1.7-5.8,2
	c-4.9,1-9.9,0.4-14.8-0.4c-4.1-0.6-8-2.3-11.2-5c-3.6-3.1-7.9-5.1-11.9-7.7c-5.8-3.7-10-8.6-9.7-15.8c0.2-4.9,2.1-9.4,2.5-14.2
	c0.2-1.4-0.2-2.9-1-4.1c-0.9-0.9-1.9-1.8-3-2.5c-4.7-4.2-2.1-9.9,3.1-11.6c0.1-0.1,0.3-0.1,0.4-0.2c8.3-0.7,15.7-5,23.8-6.3
	c3.9-0.6,7.8-0.6,11.7,0c3.7,0.5,7.4-1.2,9.4-4.4c1.4-2.2,2.2-4.7,3.4-7c3.4-6.8,8.5-11.1,16.2-11.9c1.3,0.1,2.6-0.3,3.9-0.2
	c2.3-0.1,4.6,0.3,6.9-0.3h0.5c3.4,0.7,6.7,1.4,9.7,3.2c1.1,0.5,2,1.2,2.7,2.2c1.2,2.1,3.1,3.7,5.4,4.6c2.4,1.1,4.4,2.7,6.1,4.7
	c4.2,5,4.6,5.2,11,4.4c5.8-0.7,11.6,0,17,2.2c5.2,2,8.4,5.6,8.3,11.5c0,2.4,0.5,4.8,1.6,7C402.8,44.5,403.5,48.5,402.9,52.4z"/>
<path class="st1" d="M361,173.8c-0.2,0.1-0.4,0.1-0.7,0.1c-2.6,0.5-4.4-0.6-6.5-1.9c-0.4-0.2-0.7-0.7-0.7-1.2
	c0.4-6.8-1-13.5-0.6-20.3c0.8-10.8,4.5-20.4,8.2-30.4c1-2.7,1.9-4.7,5-5.2c2.7-0.3,5.2,1.1,6.3,3.6c1.2,2.6,1.4,5.3,1.6,8
	c0.7,6.8,1.4,13.7,1,20.6c-0.5,7.3-1.8,14.5-6.7,20.3C366,169.8,364.2,172.8,361,173.8z"/>
<g>
	<path class="st2" d="M383.9,135.3c-2.7,2.3-6.1,3.1-8.4,5.7c-0.7,0.8-1.6,1.8-2.9,1.1s-0.7-2.1-0.4-3.3c0.9-4.3,4.7-5.6,7.9-7.4
		c1.8-1,3.6-1.9,4.8-3.8c1.4-2.2,3.4-1.3,5-0.3c2.6,1.6,3.9,5.1,3.3,8.2c-0.2,0.9-1,1.7-0.4,2.9c2.7-1.5,4.9-3.7,7.3-5.5
		c3.4-2.6,7.3-4.6,11.5-5.8c2.6-0.8,6,1.8,6.5,5.1c0.8,4,0.4,8.1-1,11.9c-0.8,1.9,0.4,3.3,1.4,4.3c0.8,0.9,2.1-0.1,3-0.8
		c3.8-3.7,7.9-7,12.2-10.1c0.6-0.4,1-1.1,1.8-0.7s0.2,1.1,0.3,1.6c0.6,4.9-3.4,6.9-6.2,9.2c-2.5,2.1-5,4.4-7.6,6.4
		c-2.3,2.1-5.7,2.4-8.4,0.8c-2.4-1.2-3.8-4.5-4.2-7.2c-0.3-3.9-0.5-7.8-0.4-11.7c0-1.4-0.9-1.3-2-0.8c-4.9,2.1-8.8,5.5-12.8,8.8
		c-1.9,1.6-3.3,4-5.4,5c-3,1.4-5.2,3.7-7.6,5.7c-1.9,1.6-2.9,0.9-4.1-0.1c-1-1-1.5-2.4-1.5-3.8c0-3.1,1.3-6,3.5-8
		C381.4,141,383.2,138.9,383.9,135.3z"/>
	<path class="st2" d="M243.4,123.5c1.9-1.5,4.2,0.1,6.5-0.4c1.5-0.2,2.8,0.7,3.3,2.1c0.6,1.5,1.6,3.1,0.2,4.6
		c-1.1,1.1-2.5,2.6-4,1.8c-5.1-2.9-8.7,0.1-12.7,2.4c-3.7,2.1-5.4,5.8-7.9,8.8c-1.4,1.6-1.8,4.2-1.8,6.5c-0.1,1.8,1.4,1.8,2.6,1.8
		c3.9-0.1,7.7-1.3,10.9-3.6c2.8-1.7,5.8-3.1,8.6-4.8c3.8-2.3,7.4-4.9,10.8-7.7c0.8-0.6,1.6-1.7,2.7-1s-0.1,1.6,0,2.3
		c0.7,3.4-1.9,4.7-3.9,6.5c-4.4,3.9-9.6,6.6-14.3,10.1c-2,1.5-4.4,2.5-6.9,2.7c-1,0.1-1.8,1.9-3.3,1.7c-3.7-0.5-7.4-0.2-10.4-3.5
		c-4.4-4.8-3.3-8.9-0.5-14.2c1.3-2.6,3-5,4.9-7.1c3-3.4,6.5-6.6,11-8C240.3,124.1,241.4,122.6,243.4,123.5z"/>
	<path class="st2" d="M180.2,151.1c4.2,0.2,7.7-1.7,11.2-3.7c3-1.7,6.1-3.3,9-5.1c3.2-1.9,6.3-4.1,9.1-6.6c0.7-0.6,1.5-1.2,2.4-1.6
		c0.7-0.4,1.9,0,1.6,0.4c-1,1.7,0.5,3.7-1.1,5.4c-1.8,2-3.9,3.8-6.1,5.3c-2.6,1.6-5,3.5-7.6,5.1s-5.1,3.8-8.2,4.6s-5.4,3.4-9.6,2.1
		c-5.8-1.8-8.3-3-9.7-8.6c-0.7-2.7,0.5-5.2,1.7-7.4c1.7-3.3,3.6-6.7,6.3-9.2c4.3-4,8.7-7.9,15.2-8.5c2.2-0.2,4.3,0.3,6.6,0
		c1.7-0.3,2.7,1.7,3.3,3.4c0.7,1.4,0.2,3.1-1.1,3.9c-1.3,1-2.5,1.8-4.2,0.8c-2.6-1.5-5.1-0.9-7.7,0.4c-5.2,2.4-8.9,6.5-12,11
		c-1.3,2-1.9,4.4-1.8,6.8C177.6,151.2,179,151,180.2,151.1z"/>
	<path class="st2" d="M282.3,133.3c-2.6,1-5.3,1.6-7.6,3.7c-1.5,1.4-3.4,2.4-4.9,4c-0.4,0.6-1.2,0.7-1.8,0.3
		c-0.3-0.2-0.4-0.5-0.5-0.8c-0.4-1.6-0.5-3.5,1.1-4.7c2.1-1.8,4.3-3.5,6.6-5c3.1-2,6.1-4.1,9.1-6.2c1.4-1,2.9-0.4,4.1,0.5
		c1.5,1.1,3.1,2.3,2.7,4.4c-0.7,3.4-0.9,6.9-3,9.9c-1.2,1.7-1.2,3.9-1.4,5.9c-0.1,0.5-0.5,1.3,0.2,1.6s1.6,0.1,2.2-0.3
		c4.5-2.6,8.7-5.6,12.7-9c0.6-0.5,1.2-1.2,2-0.7s0.6,1.4,0.4,2.1c-0.8,2.2-1.5,4.6-3.4,6c-3.9,3-7.3,6.8-11.8,8.9
		c-1.8,0.8-3.5,1.9-5.5,2.1c-2.7,0.3-4.4-1.3-5-3.9c-1.5-6.4,1.5-11.8,3.7-17.4c0.1-0.3,0.2-0.6,0.3-1
		C282.5,133.7,282.5,133.6,282.3,133.3z"/>
	<path class="st2" d="M292.5,104.7c0-2.5,1.5-3.9,4.1-3.9c1.4,0,3.5,2.6,3.6,4.3c0.1,2.9-1.6,5.3-3.8,5.3S292.6,107.7,292.5,104.7z"
		/>
	<path class="st2" d="M77.9,96.1c0.5-6.6-3.8-12.7-10.3-14.3c-3.7-0.9-7.4-1.7-11.5-1.2s-8.6,0-12.9,1.4c-5.6,1.7-11,3.8-16.4,6.1
		c-4.9,2.3-9.6,5.2-13.8,8.7c-3.9,3.1-7.3,7-9,11.9c-1.5,4.4,0.3,7.9,4.2,9.6c6.8,2.9,14.1,3.7,21.1,5.9c4,1.3,8.2,2.2,11.9,4.3
		c3.5,2,5.4,4.6,1.7,9.1c-0.9,1-1.7,2-2.4,3.1c-1.9,3.2-4.9,5.5-8.4,6.6c-3.5,1.1-6.8,2.5-10.1,4.1c-4.3,2.1-8.8,3.7-13.1,5.7
		c-3,1.4-6.4,2.4-8.8,4.9v2.1l2.5,1.7l0,0c0.9,0,1.9-0.5,2.7,0.4h2c0.3-0.5,0.9-0.5,1.4-0.6c10.1-1.5,19.1-5.9,27.6-11.4
		c8-5.2,16.8-8.8,25.3-12.8c2.5-1.2,5.6-2.2,6.3-5.6c0.2-0.7,1-1.4,0.3-2.1s-1.7-0.1-2.4,0.3c-4.5,2.1-9,4.2-13.6,6.3
		c1.8-2.3,2.4-5,3.3-7.7c1.3-4.1-2.5-11-7.7-9.9c-0.3,0.1-0.8,0.2-0.8-0.2c0.1-2.3-1.7-1.6-2.8-2c-1.6-0.6-3.4-0.3-4.8-0.9
		c-4.7-1.9-9.6-2.4-14.4-2.8c-4.6-0.3-9.2-1.3-13.5-3c-1.6-0.7-2.3-1.7-1.1-3.2c1.5-2,3.1-3.9,5-5.6c4.1-3.2,8.5-5.9,13.3-8
		c1.8-0.9,3.2-2.3,5.6-2.6s4.7-1.7,7-2.4c6.3-1.9,12.6-3.3,19.1-2.4c4.5,0.6,9.3,0.9,12.3,5.4c0.8,1.3,1.6,2-0.3,3
		c-1.1,0.6-2.3,1.6-1.3,3.1s2.1,2.6,4.3,1.5C78.5,101.2,77.7,98.6,77.9,96.1z M11.5,160.5L11.5,160.5c-0.3,0.2-0.6,0.3-0.9,0.4
		c-0.2,0-0.5,0-0.8,0c0-0.8,0.7-0.7,1.1-0.9c3.9-2.5,8.3-3.7,12.8-4.6C20.2,158.4,15.8,159.3,11.5,160.5z"/>
	<path class="st2" d="M117.7,130.7c-0.8-0.8-1.7,0-2.6,0.5c-3.1,1.7-6.1,3.7-8.9,5.8c-0.9,0.7-2.4,1.1-2.9,0.4
		c-1.6-2-3.4-1.6-5.6-1.8c-4.8-0.5-7.5,2-9.8,5.4c-0.8,1.2-0.9,2.9,0.8,3.8c2.4,1.1,2.7,1.9,1.3,4.1c-0.9,1.1-1.9,2-3.1,2.8
		c-1.1,0.9-1.6,0.7-1.9-0.7c-0.5-2-0.7-4.1-0.4-6.2c0.6-3.4-0.6-7.2,1.9-10.5c1.4,1.7,3,1.8,4.3,0.4c1.7-1.8,3.9-3.8,4.3-6
		c0.6-3.1,3.4-4.4,4.6-7c0.9-1.9,2.8-3.9,4-5.9c3.2-5.3,6.1-10.8,8.6-16.4c1.6-3.9,3-7.9,4.1-11.9c1.1-3.8-0.2-6.2-2.7-8.5h-1.6
		c-4.8,2.9-8.1,7.3-11.5,11.4c-3.9,4.8-7.4,9.9-10.5,15.3c-4.1,7.1-7.7,14.5-10.6,22.2c-1.6,4.2-0.9,8.6-2.8,12.6
		c-0.7,1.4,1.2,3,0.7,3.9c-1.8,3-0.2,5.4,0.6,7.9c1.2,3.9,4,5.3,8.1,4.7c5.1-0.8,8.2-4.3,11-8.2c0.8-1.2,1-3.3,3.2-2.9
		c2.8,0.5,4.2-2.4,6.8-2.6c1.1-0.1,2.4-1.4,3.4-2.1c2.9-2,5.4-4.7,7.2-7.7C118.5,132.6,118.4,131.5,117.7,130.7z M111.6,86.4
		c0.2,2.2,0.3,3.7-0.2,5.3c-2.5,6.5-5.7,12.6-9.6,18.3c-2.9,4.4-6.3,8.4-9.3,12.7c-1.3,1.9-3,3.6-4.5,5.4l-0.8-0.5
		C93.2,112.8,102.3,100,111.6,86.4z"/>
	<path class="st2" d="M480.7,133.3L480.7,133.3c-0.3-2.5-3.4-4-2.4-7.1c0.2-0.5-0.9-1.3-1.6-1.5c-3.3-1.3-6.6-3.4-10.3-1.1
		c-0.5,0.2-1,0.4-1.5,0.4c-3,0.5-5.9,1.7-8.3,3.5c-3.8,2.3-7.3,4.9-10.7,7.7c-1.7,1.6-2.6,3.1-2.3,5.4c0.1,0.6,0.1,1.3,0.8,1.5
		c0.6,0.3,1.3,0,1.5-0.6l0,0c0.3-1.3,1.8-1.3,2.4-2.2c0.2-0.5,0.7-0.7,1.2-0.5c0,0,0.1,0,0.1,0.1c0.5,0.3,0.3,1,0.2,1.4
		c-0.6,2.1-1,4.2-1.4,6.3c-0.8,7,7.4,13.3,14,11c6.9-2.4,13-5.6,16.6-12.6c0.9-1.8,1-3.8,2.2-5.3v-2.1
		C480.2,136.2,480.9,134.7,480.7,133.3z M473.3,136.4c1.6,1.3,0.8,2.8,0.4,4.3c-1.4,4.8-5.3,7.7-8.6,11c-1.1,1.1-2.6,1.8-4.1,2.1
		c-3.3,0.4-4.7-0.7-4.7-4c0.1-4.6,1.7-9.1,4.7-12.7c1.8-2.2,4-3.6,6.1-5.2c1.1-0.8,3.2-0.4,4.7-1.2l0,0c0.6-0.8,1.5-1.3,2.5-1.4
		c-0.4,0.8-1.1,1.5-1.9,2C471.4,133.2,471.3,134.9,473.3,136.4L473.3,136.4z"/>
	<path class="st2" d="M364.9,135.5c-1.1-0.5-1.7,0.5-2.4,1.2c-3,2.8-6.1,5.6-9.2,8.3c-0.5,0.4-1.1,1-1.9,0.6s-0.4-1.1-0.3-1.7
		c0.1-3.3,1.2-6.5,3.2-9.1c1.6-1.9,2.4-4.3,2.4-6.7c0.1-1.4-0.9-2.6-2.3-2.7c-0.2,0-0.3,0-0.5,0c-2.1-0.2-4,0.9-4.9,2.8
		c-0.2,0.4-0.5,1-1.1,0.9s-0.4-0.6-0.5-1c-1.3-4.7-3.5-5.7-8-4.1c-4.7,1.6-9.1,3.9-13.1,6.8c-4.5,3.3-8.2,7.5-11,12.3
		c-1.2,2-1.8,4.3-1.7,6.6c0.7,6.4,4,9.3,9.4,7c7.2-2.9,12.6-8.6,18.4-13.6c0.9-0.8,1.9-1.5,3.1-1.9c0,2.5,0,4.8,0,7.1
		c0.1,2.7,2.4,4.8,5.1,4.7c0.5,0,1.1-0.1,1.5-0.3c4.6-1.6,8.1-4.8,11.6-7.9c2-1.8,2.4-4.1,3.1-6.4C366,137.3,366.1,136,364.9,135.5z
		 M332.3,145.1c-2.9,1.6-5.4,3.8-8.5,5c-0.8,0.3-1.8,1.2-2.6,0.3c-0.7-0.9-0.8-2-0.2-3c1.3-3.3,3.9-5.9,6.4-8.3
		c3-2.9,6.6-5,10.6-6.3c2.6-0.8,5,0.5,7.5,0.1C341.2,137.3,337.6,142.1,332.3,145.1z"/>
	<path class="st2" d="M151.2,129.6c-0.4-0.4-0.7-0.7-0.3-1.3c1.1-2-0.1-3.1-1.8-3.8c-3.3-1.5-6.4-2.6-10.4-1.1
		c-3.4,1.3-6.8,2.3-9.9,4.3c-3.6,2.2-7,4.7-10.2,7.5c-1.8,1.6-2.9,3.1-2.2,5.6c0.1,0.5,0,1.1,0.7,1.3c0.6,0.2,1.3-0.1,1.6-0.6
		c1-1.4,2.5-2.2,4.3-3.7c-0.6,3-1,5.4-1.7,7.7c-1.9,6.6,7,14.3,12,12.8c4.7-1.3,9.1-3.6,13-6.6c3.6-2.9,6.1-6.9,6.9-11.4
		C154,136.2,154.3,132.6,151.2,129.6z M146.5,140.2c-2.2,5.6-6.3,10.2-11.6,13c-3.4,1.9-6,0.3-6-3.6c0-4.8,1.7-8.7,4.6-12.5
		c1.7-2.1,3.8-3.9,6.1-5.2c1.7-1,4.3-0.9,6.4-2.1c-2.3,2.7-2.3,4.9,0.4,7.2C147.4,137.8,146.9,139.2,146.5,140.2z"/>
</g>
<path class="st2" d="M335.4,38.1L335.4,38.1L335.4,38.1c0.2,0.7,0.3,1.4,0.4,2.1c0.1,0.7-0.4,1.3-1.1,1.4c-0.5,0.1-1-0.1-1.3-0.5
	c-0.3-0.5-0.1-1.2,0.4-1.5C334.3,39.1,334.8,38.6,335.4,38.1L335.4,38.1L335.4,38.1c-1.6-1.8-2,0.3-2.6,0.9c-0.8,0.9-1.5,2.1,0,3.1
	c1.5,0.8,3.3,0.2,4.1-1.3l0,0C337.8,39.2,336.8,38.5,335.4,38.1z"/>
<path class="st2" d="M391.9,41.4c-0.9-0.9-0.9-2.2-0.9-3.5c0-3.1-0.1-6.9-2.4-8.6c-3.5-2.7-7.5-5.4-12.1-5.9
	c-1.9-0.2-3.8,0.6-5.5,1.2c-1.2,0.4-1.5,0.3-2.2-0.8c-4-6.1-8.7-11.4-16-13.6c-2.3-0.7-4.3-2.2-5.5-4.3c-2.1-3.6-6-5.9-10.2-6
	c-4.4-0.2-8.5,0.5-12.2,3s-8.1,3.2-11.5,6.2s-6.5,5.7-9.5,8.9c-2.3,2.4-4.9,4.4-5.8,7.8c-0.5,1.5-1.4,1.9-2.8,1
	c-3.9-2.4-8.3-3.2-12.8-3.1c-2.6,0-5,0.8-6.1,3.4c-0.8,1.8-1.8,1.7-3.1,1.1c-2.1-0.9-4.4-1.4-6.7-1.4c-3.1-0.2-5.7,2.2-5.9,5.2
	c0,0.2,0,0.4,0,0.6c0.1,0.7-0.2,1.5-0.7,2c-3.5,3.5-3.7,5.5-1.2,9.7c0.7,1.3,1.2,2.7,1.5,4.1c0.5,2.4,0,4.8-0.4,7.1
	c-1,6,0.2,11.1,5.4,14.9c0.6,0.5,1.1,1,1.5,1.7c4.3,5.5,9.5,9.4,16.6,10.6c4,0.7,8.1,1.9,11.3,4.7c1.8,1.5,4.1,2.4,6.5,2.5
	c4,0.4,8.1-0.4,11.6-2.4c1.2-0.7,2-0.5,3,0.5c1.8,1.8,3.9,3.3,6.3,4.3c1.1,0.4,3-0.3,3.3,0.8s-0.7,2.4-1.1,3.7
	c-0.3,0.7-0.5,1.4-0.7,2.1c-3.5,15-5.2,30.4-5,45.8c0.2,7.9,0.8,15.8,0.3,23.7c0,1.6-0.8,3-2.1,3.9c-2.9,2-5.7,4.1-8.5,6.2
	c3.9-0.6,6.4-3.6,10.1-5.2c-0.6,6.2-0.8,12-0.9,17.8c-0.2,13.9-2.8,27-14.7,36.2c-0.8,0.4-1.4,1.3-1.4,2.3c0.4-0.1,0.7-0.3,1.1-0.5
	c0.6-0.4,1.3-0.8,1.8-1.3c7.2-5.4,12-13.4,13.5-22.2c1.6-8.6,1.4-17.2,1.8-25.9c0.2-5.2,1-9.9,5.8-13c1.2-0.9,2.2-2,3-3.3
	c2.3-2.9,3.6-6.6,3.6-10.3c0-7,0-14-0.1-21c-0.2-7.4,1.3-14.7,4.3-21.4c1.1-2.2,2.8-4.1,4.9-5.3c4.9-3.1,9.9-1.7,14.8-0.1
	c7.7,2.5,9.9,11.3,4.2,17c-4.9,4.9-5.7,11.5-8.3,17.4c-0.1,0.4-0.1,0.8-0.1,1.2c-0.1,5.9-0.2,11.7-0.1,17.5
	c0.1,5.6,0.3,11.2,3.2,16.3c1.5,2.7,2.4,3.1,4.9,1.5c0.7-0.4,1.2-1.2,2.2-0.9c2.7,0.8,4.2-0.9,5.3-2.9c3-5,5.1-10.5,6.4-16.2
	c1.7-8.9,2.5-17.8,0.3-26.7c-0.7-3.5-3.1-6.5-6.4-7.9c-2.7-1.2-3.1-2.7-2.8-5.3c0.6-4.9-1.1-9-5.6-11.4c-4.2-2.3-8.9-3.2-13.6-2.7
	c-4.5,0.4-8.3,3.3-10,7.4c-1.4,3.1-2.4,6.3-3.3,9.6c-2.4,10.4-1.4,21-1.5,31.5c-0.1,7.3-3.5,14.9-9.6,17.7c0-2.5,0-5,0-7.4
	c-0.4-16-1-32,1.9-47.8c1.1-6,1.8-12,3.8-17.9c0.5-1.5,1.2-2.1,3-2.5c2.7-0.7,5.6-0.5,8.3,0.4c0.6,0.2,1.1,0.2,1.7,0.2
	c7,0,13.9-1.4,20.4-4.1c4.2-1.8,8.5-3.6,11-7.6c1.3-2,2.6-2.7,4.8-2.4c7.9,1,13.2-2.6,17.1-9.1c2.5-4.2,4.2-8.7,6-13.2v-1
	C397.1,50.8,395.8,45.6,391.9,41.4z M360.9,171.4c-0.6,0.7-1.1,1.4-1.6,2.2c-0.4,0.8-0.7,1.6-1.7,1.6c-1.1,0-1.7-0.8-2.1-1.8
	c-1.3-2.5-2-5.2-2.2-8c0-7.9-0.8-15.9,0.3-23.7c0.9-6.4,3.1-12.9,7.8-18.1c0.3-0.3,0.7-0.6,1.5-1.3c0.1,7.3,1.9,13.7,3.4,20.1
	c1.9,7.7,0.8,15.4-1.1,22.9C364.6,167.9,362.3,169.4,360.9,171.4L360.9,171.4z M364.8,122.3c0.8-0.4,1.6,0.3,2.2,0.7
	c2.8,1.7,4.8,3.9,5.3,7.3c0.7,4.6,1.1,9.2,1.1,13.8c-0.8,7.8-1.4,17.3-6.6,25.8c-0.9,1.4-1.1,3.3-3,4c-0.8,0.3-1.7,0.5-2.3-0.2
	s0.3-1.2,0.7-1.6c7.9-10.1,7-21.5,4.5-32.9c-1.2-4.8-2-9.7-2.5-14.6C364.3,123.8,364,122.7,364.8,122.3L364.8,122.3z M300.3,24.3
	c1.1-1.9,2.6-3.6,4.5-4.9c0.6-0.4,1.2-0.9,1.7-1.4c3-4.6,7.4-7.5,11.9-10.2c3.7-2.3,7.6-4.2,11.7-5.6c4.1-1.5,8.6-1.2,12.4,0.9
	c1.2,0.7,2.2,1.7,2.9,2.9c1.9,3,4.9,5.2,8.3,6.1c3.8,1.1,6.8,3.7,9.3,6.6c1.3,1.5,2.6,3,3.7,4.6s1,3-0.9,4
	c-4.5,2.3-8.6,5.2-12.3,8.6c-4.5,4.2-9.1,8.5-12.2,13.9c1.5-0.6,2-2.1,3-3.2c5.7-5.8,11.4-11.6,18.3-16c1.3-0.8,2.7-1.5,4-2.4
	c1.1-0.7,1.5-0.2,1.5,0.9c0,1.6-0.1,3.1-0.3,4.7c-0.3,1.8-0.3,3.6-0.1,5.4c0.5,3.7-0.9,7.5-3.7,10c-2.5,2.4-5.7,4.2-8.6,6.2
	c-1.6,1.1-3.4,1.9-5.4,2.3c0-2.2-1.2-3-3.9-2.4c-0.4,0.1-0.7,0.4-1.1,0.5c-1,0.3-2.4,1-2.9-0.1c-0.7-1.5,0.9-2,2-2.6
	c0.8-0.3,1.6-0.4,2.4-0.3c1.5,0.2,2.9,0,3.4-1.7c0.3-0.6,0-1.4-0.6-1.7c-0.1,0-0.1-0.1-0.2-0.1c-1.5-0.5-3.1-0.5-4.3,0.8
	c-0.3,0.4-0.5,0.9-0.8,1.2c-1.4,1.4-2.3,1.3-3.2-0.5c-0.5-1-1.2-1.8-2.2-2.3c-1.4-0.8-1.3-1.9-1-3.2c0.2-0.9,0.5-1.3,1.5-0.8
	c1.1,0.6,2,0.1,3.2-1.5c-1.6,0.3-2.4,0.7-3.5,0s-1.9,0.8-2.6,1.6c-0.6,0.5-0.6,1.5-1.7,1.6c-1.9,0.1-2.3-0.8-1.3-3
	c-0.9-0.2-1.2,0.4-1.5,1c-0.4,1.3-1.8,2-3,1.5c-0.2-0.1-0.4-0.2-0.6-0.3c-1.1-0.8-0.5-2.4,0.2-3.6c0.3-0.4,0.6-0.8,1-1.1
	c0.2-0.2,0.4-0.5,0.5-0.8c0.1-1-0.7-1.3-1.4-1.3c-1.2,0-2.6-1.3-3.5,0.5c-0.5,0.9-0.5,1.7,0.6,2.3c0.5,0.3,1.3,0.3,1.2,1
	s0,1.6-0.9,1.9c-0.7,0.2-1.4-0.1-1.7-0.7c-0.6-0.7-0.9-1.6-1-2.5c0.2-1.8-0.8-3.4-2-3.7c-1.5-0.3-2.3,1.6-3.1,3.2
	c-3.7-5.5-9-8.6-14.6-11.2c-0.4-0.2-0.7-0.4-1.1-0.5C298.7,27.8,298.5,27.4,300.3,24.3L300.3,24.3z M335.3,55.2
	c-3.1-1.7-6.3-3.1-10-3.1c4.1-3.1,9.6-2.5,11.8,1.1c0.4,0.7,1.2,1.7,0.5,2.4S336,55.6,335.3,55.2L335.3,55.2z M336.5,59.9
	c-1.3,1.8-2.4,3.3-4.9,2.5c-2.9-0.9-4.5-2.7-4.5-5.2s1-3.3,3.4-2.4c1.7,0.7,3.3,1.4,5,2S337.8,57.9,336.5,59.9L336.5,59.9z
	 M325.2,58.8c-0.7,0-1-0.7-1.2-1.4s-0.4-1.4-0.6-2.1c-0.3-1.1,0.2-1.5,1.6-1.3c0.7,0.2,3-0.5,1.1,1.9c-0.3,0.3-0.2,0.9-0.3,1.4
	S326.3,58.8,325.2,58.8L325.2,58.8z M321,47.8c-1.1-0.1-2.4,0.3-2.6-1.1c0-0.4,0.4-1.2,0.6-1.2C320.3,45.6,320.5,46.9,321,47.8z
	 M319.8,40.5c0-0.1,0.3-0.3,0.5-0.4c0.3,0,0.6,0.2,0.7,0.5v0.1c-0.2,0.1-0.3,0.2-0.5,0.3C320,41,319.7,40.9,319.8,40.5L319.8,40.5z
	 M319.8,42.5c1.9-0.4,2-0.4,2.5,1.6c0.3,1.2,0.4,2.5,1.4,3.6C321,47.1,321.1,44.2,319.8,42.5L319.8,42.5z M325.4,49.8
	c0.7-1.4,2.1-2.3,3.6-2.6c0.6-0.2,1.4-0.1,1.5,0.8c0.2,1.1-0.6,0.9-1.2,1L325.4,49.8z M332.4,48.8c-0.4-0.1-0.8-0.3-0.7-0.8
	c0-0.4,0.4-0.7,0.8-0.8c2.5-0.3,7.2,3.9,7.2,6.5c0,0.1-0.2,0.2-0.6,0.7C337.8,51.5,335.7,49.4,332.4,48.8L332.4,48.8z M341,59.8
	c0.5-0.6,1.2,0.2,1.7,0.5c3.7,2.6,4.6,6.8,5.7,10.5c-0.1,1,0.1,1.7-1,1.6c-3.2-0.3-7.9-4.4-8.8-7.5C337.9,62.3,339.9,61.3,341,59.8z
	 M345.9,51.1c0.5-0.8,1.6-1,2.4-0.4c0.1,0,0.1,0.1,0.2,0.1c0.4,0.2,0.2,0.6-0.1,0.8C347.3,52.3,346.9,51.2,345.9,51.1L345.9,51.1z
	 M326.4,40.1c0,0-0.1,0.2-0.3,0.5c-0.2-0.1-0.3-0.3-0.4-0.5c0-0.1,0.1-0.2,0.2-0.4C326,39.8,326.2,39.9,326.4,40.1L326.4,40.1z
	 M298.6,33.3c0-0.7,0.1-1.3,0.1-2c0-1.1,0.5-1.4,1.6-1.1c7.3,2.4,13.2,6.5,17.4,13c0.5,0.7,0.1,1.2-0.1,1.8c-1,2.3-0.6,3.2,1.9,3.9
	c0.6,0.2,1.3,0.2,2,0.3c1,0.2,1.1,0.9,0.9,1.7s-1,0.7-1.6,0.3c-2.5-1.8-5.4-3.2-7.6-5.5c-3.2-3.3-6.9-5.3-11.6-5.1
	c-1.1,0.2-2.1-0.5-2.3-1.6c0-0.1,0-0.2,0-0.3c-0.3-1.8-0.5-3.6-0.8-5.4H298.6z M321.7,56.4c-0.3,1.2-1.5,0.3-2.3,0.1
	c-4.1-0.9-8.2-1.8-11.6-4.4c-2.6-2.1-5.3-4.2-6.3-7.6c-0.7-2.3-0.7-2.4,2.3-2.2c2.4,0.2,4.7,1.2,6.5,2.8c2.8,2.5,5.8,4.8,9,6.9
	c0.5,0.4,1.1,0.8,1.6,1.1C322.1,53.9,321.9,55.4,321.7,56.4L321.7,56.4z M311.9,86.3c-3.6,1.5-7.1,3.1-11.2,2.4
	c-1.5-0.1-2.9-0.6-4.1-1.6c-3.7-3.5-8.3-5-13.1-5.8c-5.6-0.9-9.9-3.8-13.6-7.8c-1.8-2.1-3.6-4-5.6-5.9c-2.5-2.3-2.9-5.4-2.9-8.6
	c-0.3-3.3,1.5-6.4,0.8-9.8c-0.6-2.4-1.5-4.7-2.5-6.9c-1.3-3-1-4,1.4-6.2c1-0.7,1.5-1.8,1.4-3c-0.3-2.7,1.3-4.5,4.1-4.5
	c2.1,0,4.3,0.4,6.3,1.2c3.1,1.2,3.5,1,5-1.8c0.8-1.7,2.6-2.7,4.4-2.6c4.7,0.1,9.4,0.5,13.5,3.3c0.9,0.6,1.6,1.1,1.4,2.2
	c-0.3,2.6,0.1,5.3,0.9,7.8c0.3,1.2,0.3,1.9-1.1,2.4c-3.7,1.3-4.5,4.5-2.1,7.6c1.5,1.9,3.2,3.8,4.9,5.5c3.2,3.1,4.8,7.5,4.5,11.9
	c-0.5,5.3,2.1,9.2,4.5,13.2c1.1,1.7,2.3,3.4,3.6,5C312.9,85.3,312.9,85.8,311.9,86.3L311.9,86.3z M315,83.7
	c-1.3,0.9-2.5-0.6-3.1-1.6c-2.1-3.1-4-6.4-5.6-9.8c-0.9-2-0.8-4-0.8-6.1c0.2-5.4-2.1-10.6-6.1-14.3c-1.9-1.8-3.9-3.8-4.6-6.2
	c-0.1-2.3,1.3-2.8,2.8-3.3s1.8,0.7,2.1,1.7c1.8,5.2,5.7,8.3,10.4,10.6c3.5,1.6,7.2,2.8,11,3.3c2,0.3,4.6,4.1,4.2,6.1
	c-0.7,3.6-1.7,7.2-2.9,10.6C320.9,78.4,318.3,81.5,315,83.7z M319.7,81.3c2.6-3,4.3-6.6,4.9-10.6C325.2,75.1,323.2,79.5,319.7,81.3
	L319.7,81.3z M327,91c-3.7,0.1-7.3-1.2-10-3.7c-1.7-1.5-1-2.7,0.5-3.1c7.8-1.9,8.2-8.3,9.1-14.5c0.1-0.8,0.1-1.6,0.1-2.5
	c0.1-3.7,0.1-3.8,3.8-3.8c1.9,0,3.7,0.8,5.6,0.5c0.7-0.1,1,0.5,1.1,1.1c1,5.3,5.5,6.9,9.5,8.8c2.5,1.1,3.1,3.6,4.9,4.9
	c0.1,1.1-0.5,2-1.4,2.6c-4.3,2.1-8,5.1-12.3,7.3C334.4,90.3,330.7,91.1,327,91z M350.5,74.9c4.1,0.4,8.1,1.2,12,2.4
	c-3.1-0.6-6-0.4-8.5,1.6c-0.4,0.3-1,0.4-1.1-0.3C352.7,77.2,351.4,76.5,350.5,74.9L350.5,74.9z M369.7,80.7
	c-1.8,2.3-4.1,4.2-6.7,5.5c-7.8,3.9-16,6-24.8,5.4c-0.4,0-0.8-0.1-1.2-0.2c-0.1,0-0.2-0.2-0.5-0.6c4.9-1.9,8.5-5.8,13.3-7.8
	c1.3-0.6,2.5-1.3,3.5-2.2c5-4,10.7-1.5,16.1-1.7C371,79,370.3,80,369.7,80.7L369.7,80.7z M372.2,77.1c-1.1,1-2.3,0.6-3.5,0.3
	s-0.3-1,0-1.5c1.8-3.4,5.1-3.9,8.9-5C376.1,73.2,374.3,75.2,372.2,77.1L372.2,77.1z M396.5,58.4c-2.2,6.1-4.6,11.9-9.5,16.5
	c-1.8,1.7-4.2,2.7-6.6,2.7c-2.1,0.2-4.2,0.2-6.3,0c1.6-1.9,3-3.6,4.3-5.2c0.7-0.6,0.9-1.7,0.4-2.5c-0.6-1-1.6-0.7-2.5-0.4
	c-3.5,1.4-7.4,2.1-9.2,6c-0.3,0.9-1.2,1.4-2.1,1.1c-0.1,0-0.3-0.1-0.4-0.2c-3.8-2.1-8-2.4-12.1-2.9c-2-0.3-3-0.8-3-3.2
	c0-3.9-2.3-6.9-4.5-10.4c8.5,0.3,14-4.9,19.7-9.5c3.2-2.4,4.9-6.3,4.5-10.2c-0.4-4.2,0.7-8.4,0.4-12.6c0-0.6,0.3-1.1,0.8-1.4
	c3.4-2.2,7.8-2,10.9,0.7c0.9,0.8,2.1,1.3,3.4,1.4c2.1,0.2,3.7,1.8,3.9,3.8c0.4,2.3,1.1,4.5,0.9,6.8c0,1.3,0.5,2.6,1.5,3.5
	c3.2,3.4,4.4,7.7,5.5,12C397,55.8,397,57.2,396.5,58.4L396.5,58.4z"/>
</svg>
