<svg xmlns="http://www.w3.org/2000/svg" viewBox="0 0 496.1 495.91"><defs><style>.cls-1{fill:#bc5839;}</style></defs><title>message-orange.html</title><g id="圖層_2" data-name="圖層 2"><g id="圖層_1-2" data-name="圖層 1"><path class="cls-1" d="M248.5,0C108.5,0,0,102.3,0,240.6c0,72.3,29.7,134.8,78.1,177.9,8.3,7.5,6.6,11.9,8.1,58.2a19.9,19.9,0,0,0,20.6,19.2,18.56,18.56,0,0,0,7.3-1.7c52.9-23.3,53.6-25.1,62.6-22.7,153.3,42.2,319.4-55.9,319.4-231C496,102.3,388.6,0,248.5,0ZM397.8,185.1l-73,115.6a37.37,37.37,0,0,1-51.6,11.5,18.82,18.82,0,0,1-2.3-1.6l-58.1-43.5a15,15,0,0,0-18,0l-78.4,59.4c-10.5,7.9-24.2-4.6-17.1-15.7l73-115.6a37.47,37.47,0,0,1,51.6-11.6c.8.5,1.6,1.1,2.4,1.6l58.1,43.5a15,15,0,0,0,18,0l78.4-59.4c10.3-7.8,24,4.7,17,15.8Z"/></g></g></svg>